<svg version="1.1" xmlns="http://www.w3.org/2000/svg" width="48" height="48"><g transform="translate(-216,-156)"><g><path d="M216,180c0,-13 11,-24 24,-24c13,0 24,11 24,24c0,13 -11,24 -24,24c-13,0 -24,-11 -24,-24z" fill="#fff" stroke-width="0"/><path d="M234,180c0,-3 3,-6 6,-6c3,0 6,3 6,6c0,3 -3,6 -6,6c-3,0 -6,-3 -6,-6z" fill="#32324b" stroke="#fff" stroke-width="0"/><path d="M220,180c0,-11 9,-20 20,-20c11,0 20,9 20,20c0,11 -9,20 -20,20c-11,0 -20,-9 -20,-20z" fill="none" stroke="#d8d8d8" stroke-width="2"/><path d="M224,180c0,-9 7,-16 16,-16c9,0 16,7 16,16c0,9 -7,16 -16,16c-9,0 -16,-7 -16,-16z" fill="none" stroke="#d8d8d8" stroke-width="2"/><path d="M224,164l11,11" fill="none" stroke="#f2f2f2" stroke-width="2"/><path d="M228,162l10,10" fill="none" stroke="#f2f2f2" stroke-width="2"/><path d="M222,168l10,10" fill="none" stroke="#f2f2f2" stroke-width="2"/></g></g></svg>