<svg version="1.1" xmlns="http://www.w3.org/2000/svg" width="62" height="62"><g transform="translate(-209,-149)"><g fill="#fff"><path d="M216,200v-4h48v4z" stroke="#fff" stroke-width="0"/><path d="M216,164v-4h48v4z" stroke="#fff" stroke-width="0"/><path d="M216,172v-4h48v4z" stroke="#fff" stroke-width="0"/><path d="M216,192v-4h48v4z" stroke="#fff" stroke-width="0"/><path d="M216,200v-40h4v40z" stroke="#fff" stroke-width="0"/><path d="M260,200v-40h4v40z" stroke="#fff" stroke-width="0"/><path d="M216,172v-12h8v12z" stroke="#fff" stroke-width="0"/><path d="M228,172v-12h4v12z" stroke="#fff" stroke-width="0"/><path d="M236,172v-12h4v12z" stroke="#fff" stroke-width="0"/><path d="M244,172v-12h4v12z" stroke="#fff" stroke-width="0"/><path d="M252,172v-12h4v12z" stroke="#fff" stroke-width="0"/><path d="M256,200v-12h8v12z" stroke="#fff" stroke-width="0"/><path d="M248,200v-12h4v12z" stroke="#fff" stroke-width="0"/><path d="M240,200v-12h4v12z" stroke="#fff" stroke-width="0"/><path d="M232,200v-12h4v12z" stroke="#fff" stroke-width="0"/><path d="M224,200v-12h4v12z" stroke="#fff" stroke-width="0"/><path d="M212,200l48,-48l8,8l-48,48z" stroke="#0" stroke-width="4"/></g></g></svg>