<svg version="1.1" xmlns="http://www.w3.org/2000/svg" width="48" height="40"><g transform="translate(-216,-160)"><g fill="#fff" stroke="#fff" stroke-width="0"><path d="M216,200v-4h48v4z"/><path d="M216,164v-4h48v4z"/><path d="M216,172v-4h48v4z"/><path d="M216,192v-4h48v4z"/><path d="M216,200v-40h4v40z"/><path d="M260,200v-40h4v40z"/><path d="M216,172v-12h8v12z"/><path d="M228,172v-12h4v12z"/><path d="M236,172v-12h4v12z"/><path d="M244,172v-12h4v12z"/><path d="M252,172v-12h4v12z"/><path d="M256,200v-12h8v12z" /><path d="M248,200v-12h4v12z" /><path d="M240,200v-12h4v12z" /><path d="M232,200v-12h4v12z" /><path d="M224,200v-12h4v12z" /></g></g></svg>