<svg version="1.1" xmlns="http://www.w3.org/2000/svg" width="172" height="181"><g transform="translate(-157,-97)"><g><path d="M308,214c-5,1 -10,-1 -16,-0c-4,0 -12,-2 -13,2c-1,4 8,2 11,3c3,1 15,4 19,8c1,1 0,2 0,2c0,1 1,1 2,2c0,1 -1,2 -1,3c-0,1 1,2 1,3c-0,1 -1,1 -2,1c-0,1 0,2 -1,2c-6,6 -20,4 -27,8c-1,1 2,3 1,4c-2,3 -4,5 -7,7c-2,1 -3,0 -5,-0c-13,-3 -17,-3 -20,-15c-0,-2 4,-7 5,-9c1,-1 2,-1 3,-2c0,-0 2,-0 1,-0c-11,-4 -34,-1 -32,-19c0,-0 1,-1 1,-1c3,-6 9,-8 15,-10c12,-3 33,-9 46,-9c1,-0 16,-2 19,1c1,0 1,1 2,1c3,2 4,5 4,8c0,5 -3,9 -8,10c-0,0 -1,0 -1,0z" fill="#ff15f8"/><path d="M179,132c7,-4 28,-0 35,1c9,1 20,1 24,10c5,11 -19,19 -25,23c-2,1 -11,-1 -6,3c2,2 7,1 10,1c5,1 11,2 16,2c7,1 17,1 16,12c-1,11 -12,9 -19,8c-5,-1 -8,-2 -15,-2c-5,-1 -10,-1 -16,-1c-5,-0 -10,-0 -15,-0c-7,0 -18,1 -24,-5c-1,-1 -0,-2 -0,-2c-0,-1 -2,-1 -2,-2c-1,-8 4,-11 10,-13c10,-5 19,-9 29,-14c2,-1 -7,0 -13,-0c-0,-0 -1,-0 -1,-0c-5,-1 -9,-5 -9,-10c0,-3 2,-6 4,-8c0,-0 1,-1 1,-1z" fill="#ff15f8"/><path d="M257,112c13,-6 26,-10 39,-14c6,-1 12,-3 19,-0c2,1 4,5 4,6c4,7 -5,14 -9,17c-3,3 -7,6 -10,8c-1,1 -4,2 -4,3c1,1 4,-1 6,-1c2,-0 5,-1 7,-1c4,-1 17,-2 19,4c0,1 0,3 0,4c0,2 1,2 1,4c0,5 -14,16 -15,16c-3,2 6,4 7,8c3,16 -27,15 -32,16c-2,0 -4,1 -5,-0c-7,-4 -10,-12 -4,-19c0,-0 4,-4 5,-5c1,-1 4,-2 4,-4c0,-1 -2,0 -4,1c-3,1 -6,1 -9,2c-3,1 -18,4 -22,-0c-1,-2 -3,-3 -3,-5c-2,-14 9,-13 16,-22c1,-1 -2,1 -2,1c-1,1 -3,2 -4,2c-2,2 -5,4 -8,4c-6,0 -10,-4 -10,-10c0,-3 1,-6 3,-7c3,-3 6,-5 10,-6z" fill="#15acff"/><path d="M212,201c5,1 10,5 10,10c0,3 -1,5 -3,7c-0,0 -1,0 -1,1c-1,1 -3,2 -4,2c-0,0 -0,0 -0,0c-3,2 -5,3 -8,5c-0,0 -2,1 -1,1c1,0 3,-1 4,-1c3,-0 13,-3 17,-1c1,1 4,1 4,3c1,4 2,6 2,9c0,2 -3,4 -4,6c-3,3 -8,5 -10,9c-1,1 3,-0 5,-0c2,-0 14,-2 16,-0c8,7 8,17 -3,19c-4,1 -8,1 -12,1c-4,0 -9,0 -13,1c-3,0 -7,1 -10,1c-5,1 -18,5 -24,3c-1,-0 -1,-2 -2,-2c-1,-1 -2,-0 -2,-1c-1,-1 -0,-2 -0,-3c-0,-1 -2,-1 -2,-2c-0,-1 1,-1 1,-2c0,-1 -1,-2 -0,-3c3,-7 13,-10 17,-14c0,-0 -1,0 -1,0c-2,0 -5,1 -7,1c-2,0 -5,1 -6,1c-3,0 -9,-1 -11,-5c-0,-1 -0,-3 -1,-4c-0,-1 -1,-2 -1,-3c-0,-4 4,-8 7,-10c8,-7 17,-16 26,-21c5,-4 10,-7 16,-8z" fill="#15acff"/><path d="M262,169l20,60l-68,23l-31,-92l37,-12z" stroke="#fff" stroke-width="5"/><g stroke="#fff" stroke-width="5"><path d="M284,161l7,63l-72,8l-11,-96l39,-5z"/><path d="M283,162l-34,4l-4,-34"/></g></g></g></svg>