<svg version="1.1" xmlns="http://www.w3.org/2000/svg" width="44" height="34"><g transform="translate(-219,-163)"><g><path d="M219,188v-16h24v16z" fill="#fff" stroke-width="0"/><path d="M235,196v-32h8v32z" fill="#fff" stroke-width="0"/><path d="M247,172c0,0 4,5 4,8c0,4 -4,8 -4,8" fill="none" stroke="#fff" stroke-width="2"/><path d="M250,168c0,0 6,7 6,12c0,5 -6,12 -6,12" fill="none" stroke="#fff" stroke-width="2"/><path d="M253,164c0,0 8,9 8,16c0,7 -8,16 -8,16" fill="none" stroke="#fff" stroke-width="2"/><path d="M219,180l16,-16v16z" fill="#fff" stroke-width="0"/><path d="M235,180v16l-16,-16z" fill="#fff" stroke-width="0"/></g></g></svg>